<svg width="220" height="179" viewBox="0 0 220 179" fill="none" xmlns="http://www.w3.org/2000/svg">
<g clip-path="url(#clip0_2_4)">
<path d="M147.249 50.1566C147.249 25.8753 126.638 6.84406 102.922 11.4378C87.6494 14.4566 75.2327 28.1066 73.1219 44.5128C72.8735 46.6128 72.7494 48.7128 72.7494 50.8128C72.7494 57.6378 68.1552 63.5441 61.6985 63.4128C61.5744 63.4128 61.4502 63.4128 61.2019 63.4128C39.1002 63.0191 18.3644 78.3753 12.5285 100.95C3.34019 136.388 28.1735 168.413 60.2085 168.413C69.7694 168.413 79.206 165.394 87.2769 159.882C91.3744 157.125 94.9752 153.844 98.0794 149.907C103.543 143.082 107.516 135.338 112.607 128.25C120.926 116.7 129.618 106.069 141.538 98.9816C150.974 93.3378 163.267 89.0066 174.318 89.6628C183.258 90.1878 191.825 94.3878 198.158 101.082C204.863 108.169 209.084 118.013 209.084 128.907C209.084 139.8 204.863 149.644 198.158 156.732C191.453 163.819 182.14 168.282 171.834 168.282C161.529 168.282 152.216 163.819 145.511 156.732" fill="url(#paint0_linear_2_4)"/>
<path d="M147.249 50.1566C147.249 25.8753 126.638 6.84406 102.922 11.4378C87.6494 14.4566 75.2327 28.1066 73.1219 44.5128C72.8735 46.6128 72.7494 48.7128 72.7494 50.8128C72.7494 57.6378 68.1552 63.5441 61.6985 63.4128C61.5744 63.4128 61.4502 63.4128 61.2019 63.4128C39.1002 63.0191 18.3644 78.3753 12.5285 100.95C3.34019 136.388 28.1735 168.413 60.2085 168.413C69.7694 168.413 79.206 165.394 87.2769 159.882C91.3744 157.125 94.9752 153.844 98.0794 149.907C103.543 143.082 107.516 135.338 112.607 128.25C120.926 116.7 129.618 106.069 141.538 98.9816C150.974 93.3378 163.267 89.0066 174.318 89.6628C183.258 90.1878 191.825 94.3878 198.158 101.082C204.863 108.169 209.084 118.013 209.084 128.907C209.084 139.8 204.863 149.644 198.158 156.732C191.453 163.819 182.14 168.282 171.834 168.282C161.529 168.282 152.216 163.819 145.511 156.732" stroke="url(#paint1_linear_2_4)" stroke-width="20" stroke-linecap="round" stroke-linejoin="round"/>
</g>
<defs>
<linearGradient id="paint0_linear_2_4" x1="-18.2736" y1="-23.2087" x2="144.835" y2="71.2142" gradientUnits="userSpaceOnUse">
<stop stop-color="white"/>
<stop offset="1" stop-color="white" stop-opacity="0"/>
</linearGradient>
<linearGradient id="paint1_linear_2_4" x1="54.7295" y1="33.9977" x2="172.495" y2="202.523" gradientUnits="userSpaceOnUse">
<stop stop-color="white"/>
<stop offset="0.785" stop-color="#DBD4D4" stop-opacity="0.215"/>
<stop offset="1" stop-color="white" stop-opacity="0"/>
</linearGradient>
<clipPath id="clip0_2_4">
<rect width="220" height="179" fill="white"/>
</clipPath>
</defs>
</svg>
